<svg width="25" height="20" viewBox="0 0 25 20" fill="none" xmlns="http://www.w3.org/2000/svg">
<path d="M0.220153 5.96689L5.97005 0.219996L6.05504 0.145997L6.11304 0.107998L6.18504 0.0689985L6.29004 0.0289993L6.39504 0.00699984L6.44704 0.00199982L6.50004 0L6.55703 0.00199982L6.64903 0.0149996L6.75603 0.0449992L6.84103 0.0819982L6.89503 0.111998L6.95803 0.155997L7.03003 0.219996L12.7799 5.96689C12.9129 6.10089 12.9904 6.28009 12.9971 6.46874C13.0037 6.65739 12.939 6.8416 12.8158 6.98462C12.6926 7.12764 12.52 7.21894 12.3324 7.2403C12.1449 7.26166 11.9561 7.21152 11.8039 7.09987L11.7199 7.02787L7.25002 2.55995V19.2496C7.24996 19.4397 7.17778 19.6226 7.04805 19.7614C6.91833 19.9003 6.74073 19.9847 6.55116 19.9977C6.36158 20.0106 6.17415 19.9511 6.02675 19.8312C5.87934 19.7113 5.78295 19.5399 5.75705 19.3516L5.75005 19.2496V2.55995L1.28013 7.02787C1.15302 7.15473 0.984606 7.23178 0.805504 7.24499C0.626402 7.2582 0.448504 7.20671 0.304152 7.09987L0.220153 7.02787C0.0928761 6.90082 0.0154853 6.73228 0.00208585 6.55294C-0.0113136 6.37361 0.0401705 6.19543 0.147155 6.05089L0.220153 5.96689ZM17.4998 0C17.6811 7.64276e-06 17.8562 0.0656416 17.9928 0.184764C18.1293 0.303886 18.2182 0.468437 18.2428 0.647988L18.2498 0.749986V17.4367L22.7197 12.9698L22.8037 12.8968C22.9482 12.7892 23.1266 12.7373 23.3062 12.7505C23.4858 12.7636 23.6547 12.841 23.782 12.9684C23.9093 13.0958 23.9865 13.2648 23.9995 13.4444C24.0125 13.624 23.9604 13.8023 23.8527 13.9467L23.7797 14.0297L18.0518 19.7566C17.922 19.8987 17.7424 19.9852 17.5504 19.9983C17.3583 20.0113 17.1687 19.9498 17.0208 19.8266L16.9478 19.7566L11.2199 14.0297L11.1469 13.9457C11.0528 13.8183 11.0013 13.6643 11.0001 13.5059C10.9988 13.3474 11.0478 13.1927 11.1399 13.0638L11.2199 12.9698L11.3039 12.8968C11.4314 12.8026 11.5854 12.7512 11.7438 12.7499C11.9023 12.7486 12.057 12.7976 12.1859 12.8898L12.2799 12.9698L16.7498 17.4387V0.749986L16.7568 0.647988C16.7815 0.468437 16.8703 0.303886 17.0069 0.184764C17.1435 0.0656416 17.3186 7.64276e-06 17.4998 0Z" fill="#6D7175"/>
</svg>
